REM DIRINDEX 1\2\3,1\2\4,1\2\5,1\2\6
REM DIRNAME folder01,folder02,folder03,folder04,folder05,folder06
TITLE ""
FILE "138 138.mp3" MP3
  TRACK 01 AUDIO
    TITLE "0:"
    INDEX 01 00:00:00
  TRACK 02 AUDIO
    TITLE "3:cjc157_5163"
    INDEX 01 00:00:09
  TRACK 03 AUDIO
    TITLE "0:"
    INDEX 01 00:01:71
  TRACK 04 AUDIO
    TITLE "4:cjc157_5164"
    INDEX 01 00:02:45
  TRACK 05 AUDIO
    TITLE "0:"
    INDEX 01 00:03:66
  TRACK 06 AUDIO
    TITLE "5:cjc157_5165"
    INDEX 01 00:04:38
  TRACK 07 AUDIO
    TITLE "0:"
    INDEX 01 00:07:39
  TRACK 08 AUDIO
    TITLE "5:cjc157_5166"
    INDEX 01 00:08:09
  TRACK 09 AUDIO
    TITLE "0:"
    INDEX 01 00:11:42
  TRACK 10 AUDIO
    TITLE "3:cjc157_5167"
    INDEX 01 00:12:12
  TRACK 11 AUDIO
    TITLE "0:"
    INDEX 01 00:13:43
  TRACK 12 AUDIO
    TITLE "4:cjc157_5168"
    INDEX 01 00:14:11
  TRACK 13 AUDIO
    TITLE "0:"
    INDEX 01 00:15:23
  TRACK 14 AUDIO
    TITLE "5:cjc157_5169"
    INDEX 01 00:15:68
  TRACK 15 AUDIO
    TITLE "0:"
    INDEX 01 00:18:07
  TRACK 16 AUDIO
    TITLE "5:cjc157_5170"
    INDEX 01 00:18:52
  TRACK 17 AUDIO
    TITLE "0:"
    INDEX 01 00:21:08
  TRACK 18 AUDIO
    TITLE "3:cjc157_5171"
    INDEX 01 00:21:49
  TRACK 19 AUDIO
    TITLE "0:"
    INDEX 01 00:23:04
  TRACK 20 AUDIO
    TITLE "4:cjc157_5172"
    INDEX 01 00:23:50
  TRACK 21 AUDIO
    TITLE "0:"
    INDEX 01 00:24:63
  TRACK 22 AUDIO
    TITLE "5:cjc157_5173"
    INDEX 01 00:25:37
  TRACK 23 AUDIO
    TITLE "0:"
    INDEX 01 00:27:73
  TRACK 24 AUDIO
    TITLE "5:cjc157_5174"
    INDEX 01 00:28:45
  TRACK 25 AUDIO
    TITLE "0:"
    INDEX 01 00:30:73
  TRACK 26 AUDIO
    TITLE "3:cjc157_5175"
    INDEX 01 00:31:43
  TRACK 27 AUDIO
    TITLE "0:"
    INDEX 01 00:33:13
  TRACK 28 AUDIO
    TITLE "4:cjc157_5176"
    INDEX 01 00:33:58
  TRACK 29 AUDIO
    TITLE "0:"
    INDEX 01 00:34:69
  TRACK 30 AUDIO
    TITLE "5:cjc157_5177"
    INDEX 01 00:35:41
  TRACK 31 AUDIO
    TITLE "0:"
    INDEX 01 00:37:73
  TRACK 32 AUDIO
    TITLE "5:cjc157_5178"
    INDEX 01 00:38:49
  TRACK 33 AUDIO
    TITLE "0:"
    INDEX 01 00:40:58
  TRACK 34 AUDIO
    TITLE "3:cjc157_5179"
    INDEX 01 00:41:30
  TRACK 35 AUDIO
    TITLE "0:"
    INDEX 01 00:42:55
  TRACK 36 AUDIO
    TITLE "4:cjc157_5180"
    INDEX 01 00:43:25
  TRACK 37 AUDIO
    TITLE "0:"
    INDEX 01 00:44:38
  TRACK 38 AUDIO
    TITLE "5:cjc157_5181"
    INDEX 01 00:45:14
  TRACK 39 AUDIO
    TITLE "0:"
    INDEX 01 00:48:73
  TRACK 40 AUDIO
    TITLE "5:cjc157_5182"
    INDEX 01 00:49:51
  TRACK 41 AUDIO
    TITLE "0:"
    INDEX 01 00:52:06
  TRACK 42 AUDIO
    TITLE "3:cjc157_5183"
    INDEX 01 00:52:55
  TRACK 43 AUDIO
    TITLE "0:"
    INDEX 01 00:54:27
  TRACK 44 AUDIO
    TITLE "4:cjc157_5184"
    INDEX 01 00:54:72
  TRACK 45 AUDIO
    TITLE "0:"
    INDEX 01 00:56:08
  TRACK 46 AUDIO
    TITLE "5:cjc157_5185"
    INDEX 01 00:56:55
  TRACK 47 AUDIO
    TITLE "0:"
    INDEX 01 00:58:44
  TRACK 48 AUDIO
    TITLE "5:cjc157_5186"
    INDEX 01 00:59:16
  TRACK 49 AUDIO
    TITLE "0:"
    INDEX 01 01:00:74
  TRACK 50 AUDIO
    TITLE "3:cjc157_5187"
    INDEX 01 01:01:48
  TRACK 51 AUDIO
    TITLE "0:"
    INDEX 01 01:03:16
  TRACK 52 AUDIO
    TITLE "4:cjc157_5188"
    INDEX 01 01:03:61
  TRACK 53 AUDIO
    TITLE "0:"
    INDEX 01 01:05:05
  TRACK 54 AUDIO
    TITLE "5:cjc157_5189"
    INDEX 01 01:05:50
  TRACK 55 AUDIO
    TITLE "0:"
    INDEX 01 01:08:54
  TRACK 56 AUDIO
    TITLE "3:cjc157_5190"
    INDEX 01 01:09:24
  TRACK 57 AUDIO
    TITLE "0:"
    INDEX 01 01:10:55
  TRACK 58 AUDIO
    TITLE "4:cjc157_5191"
    INDEX 01 01:11:25
  TRACK 59 AUDIO
    TITLE "0:"
    INDEX 01 01:12:52
  TRACK 60 AUDIO
    TITLE "5:cjc157_5192"
    INDEX 01 01:13:26
  TRACK 61 AUDIO
    TITLE "0:"
    INDEX 01 01:15:40
  TRACK 62 AUDIO
    TITLE "5:cjc157_5193"
    INDEX 01 01:16:12
  TRACK 63 AUDIO
    TITLE "0:"
    INDEX 01 01:17:47
  TRACK 64 AUDIO
    TITLE "3:cjc157_5194"
    INDEX 01 01:18:21
  TRACK 65 AUDIO
    TITLE "0:"
    INDEX 01 01:19:42
  TRACK 66 AUDIO
    TITLE "4:cjc157_5195"
    INDEX 01 01:20:10
  TRACK 67 AUDIO
    TITLE "0:"
    INDEX 01 01:21:14
  TRACK 68 AUDIO
    TITLE "5:cjc157_5196"
    INDEX 01 01:21:61
  TRACK 69 AUDIO
    TITLE "0:"
    INDEX 01 01:24:08
  TRACK 70 AUDIO
    TITLE "5:cjc157_5197"
    INDEX 01 01:24:55
  TRACK 71 AUDIO
    TITLE "0:"
    INDEX 01 01:26:48
  TRACK 72 AUDIO
    TITLE "3:cjc157_5198"
    INDEX 01 01:27:18
  TRACK 73 AUDIO
    TITLE "0:"
    INDEX 01 01:28:47
  TRACK 74 AUDIO
    TITLE "4:cjc157_5199"
    INDEX 01 01:29:17
  TRACK 75 AUDIO
    TITLE "0:"
    INDEX 01 01:30:26
  TRACK 76 AUDIO
    TITLE "5:cjc157_5200"
    INDEX 01 01:30:71
  TRACK 77 AUDIO
    TITLE "0:"
    INDEX 01 01:32:55
  TRACK 78 AUDIO
    TITLE "5:cjc157_5201"
    INDEX 01 01:33:33
  TRACK 79 AUDIO
    TITLE "0:"
    INDEX 01 01:36:27
  TRACK 80 AUDIO
    TITLE "5:cjc157_5202"
    INDEX 01 01:36:70
  TRACK 81 AUDIO
    TITLE "0:"
    INDEX 01 01:40:13
